<svg width="24" height="24" viewBox="0 0 24 24" fill="none" xmlns="http://www.w3.org/2000/svg">
<path d="M4 22C3.71667 22 3.47917 21.9042 3.2875 21.7125C3.09583 21.5208 3 21.2833 3 21V15.525C3 15.1083 3.14583 14.7542 3.4375 14.4625C3.72917 14.1708 4.08333 14.025 4.5 14.025H5.175V9.475C5.175 9.05833 5.32083 8.70417 5.6125 8.4125C5.90417 8.12083 6.25833 7.975 6.675 7.975H11.25V6.375C10.9167 6.14167 10.6625 5.8875 10.4875 5.6125C10.3125 5.3375 10.225 5.00833 10.225 4.625C10.225 4.375 10.2708 4.1375 10.3625 3.9125C10.4542 3.6875 10.5833 3.49167 10.75 3.325L12 2L13.25 3.325C13.4167 3.49167 13.55 3.6875 13.65 3.9125C13.75 4.1375 13.8 4.375 13.8 4.625C13.8 5.00833 13.7083 5.3375 13.525 5.6125C13.3417 5.8875 13.0833 6.14167 12.75 6.375V7.975H17.325C17.7417 7.975 18.0958 8.12083 18.3875 8.4125C18.6792 8.70417 18.825 9.05833 18.825 9.475V14.025H19.5C19.9167 14.025 20.2708 14.1708 20.5625 14.4625C20.8542 14.7542 21 15.1083 21 15.525V21C21 21.2833 20.9042 21.5208 20.7125 21.7125C20.5208 21.9042 20.2833 22 20 22H4ZM6.675 14.025H17.325V9.475H6.675V14.025ZM4.5 20.5H19.5V15.525H4.5V20.5ZM6.675 14.025H17.325H6.675ZM4.5 20.5H19.5H4.5ZM19.5 14.025H4.5H19.5Z" fill="#CAD1D7"/>
</svg>
