<svg width="24" height="24" viewBox="0 0 24 24" fill="none" xmlns="http://www.w3.org/2000/svg">
<g clip-path="url(#clip0_688_2719)">
<path d="M17.8892 5.06609C18.8098 5.06609 19.5554 4.32546 19.5554 3.40489V1.66454C19.5554 0.743127 18.8098 0 17.8892 0C16.9694 0 16.2263 0.743127 16.2263 1.66454V3.40489C16.2263 4.32546 16.9694 5.06609 17.8892 5.06609Z" fill="#CAD1D7"/>
<path d="M23.8033 2.88038H20.4534V3.72764C20.4534 5.12392 19.3179 6.26277 17.9183 6.26277C16.517 6.26277 15.3848 5.12392 15.3848 3.72764V2.88038H8.62252V3.72764C8.62252 5.12392 7.487 6.26277 6.08739 6.26277C4.68778 6.26277 3.55392 5.12309 3.55392 3.72681V2.88038L0.172363 2.83789V24.0003H1.86273H22.1404L23.8275 23.9953L23.8033 2.88038ZM22.1404 22.315H1.86273V8.7954H22.1404V22.315Z" fill="#CAD1D7"/>
<path d="M6.06082 5.06609C6.9814 5.06609 7.72536 4.32546 7.72536 3.40489V1.66454C7.72536 0.743127 6.98223 0 6.06082 0C5.14191 0 4.39795 0.743127 4.39795 1.66454V3.40489C4.39795 4.32546 5.14191 5.06609 6.06082 5.06609Z" fill="#CAD1D7"/>
<path d="M11.2902 10.6094H8.62842V12.9596H11.2902V10.6094Z" fill="#CAD1D7"/>
<path d="M15.5989 10.6094H12.9338V12.9596H15.5989V10.6094Z" fill="#CAD1D7"/>
<path d="M19.5885 10.6094H16.9268V12.9596H19.5885V10.6094Z" fill="#CAD1D7"/>
<path d="M11.2902 14.5117H8.62842V16.8602H11.2902V14.5117Z" fill="#CAD1D7"/>
<path d="M15.5989 14.5117H12.9338V16.8602H15.5989V14.5117Z" fill="#CAD1D7"/>
<path d="M19.5885 14.5117H16.9268V16.8602H19.5885V14.5117Z" fill="#CAD1D7"/>
<path d="M11.2902 18.4941H8.62842V20.8427H11.2902V18.4941Z" fill="#CAD1D7"/>
<path d="M7.05804 14.5117H4.39795V16.8602H7.05804V14.5117Z" fill="#CAD1D7"/>
<path d="M7.05804 18.4941H4.39795V20.8427H7.05804V18.4941Z" fill="#CAD1D7"/>
<path d="M15.5989 18.4941H12.9338V20.8427H15.5989V18.4941Z" fill="#CAD1D7"/>
<path d="M19.5885 18.4941H16.9268V20.8427H19.5885V18.4941Z" fill="#CAD1D7"/>
</g>
<defs>
<clipPath id="clip0_688_2719">
<rect width="24" height="24" fill="white"/>
</clipPath>
</defs>
</svg>
