<svg width="111" height="49" viewBox="0 0 111 49" fill="none" xmlns="http://www.w3.org/2000/svg">
<g filter="url(#filter0_d_922_3273)">
<rect x="4.3894" y="0.558594" width="102" height="40" rx="20" fill="#22A3A9"/>
<path d="M43.4878 23.7852C43.4878 24.4622 43.3237 25.0508 42.9956 25.5508C42.6674 26.0508 42.1883 26.4362 41.5581 26.707C40.9331 26.9779 40.1727 27.1133 39.2768 27.1133C38.881 27.1133 38.493 27.0872 38.1128 27.0352C37.7378 26.9831 37.3758 26.9076 37.0268 26.8086C36.6831 26.7044 36.3549 26.5768 36.0424 26.4258V24.1758C36.5841 24.4154 37.1466 24.6315 37.7299 24.8242C38.3133 25.0169 38.8914 25.1133 39.4643 25.1133C39.8602 25.1133 40.1779 25.0612 40.4174 24.957C40.6622 24.8529 40.8393 24.7096 40.9487 24.5273C41.0581 24.3451 41.1128 24.1367 41.1128 23.9023C41.1128 23.6159 41.0164 23.3711 40.8237 23.168C40.631 22.9648 40.3654 22.7747 40.0268 22.5977C39.6935 22.4206 39.3159 22.2305 38.894 22.0273C38.6284 21.9023 38.3393 21.7513 38.0268 21.5742C37.7143 21.3919 37.4174 21.1706 37.1362 20.9102C36.8549 20.6497 36.6232 20.3346 36.4409 19.9648C36.2638 19.5898 36.1753 19.1419 36.1753 18.6211C36.1753 17.9388 36.3315 17.3555 36.644 16.8711C36.9565 16.3867 37.4018 16.0169 37.9799 15.7617C38.5633 15.5013 39.2508 15.3711 40.0424 15.3711C40.6362 15.3711 41.2013 15.4414 41.7378 15.582C42.2794 15.7174 42.8445 15.9154 43.4331 16.1758L42.6518 18.0586C42.1258 17.8451 41.6544 17.681 41.2378 17.5664C40.8211 17.4466 40.3966 17.3867 39.9643 17.3867C39.6622 17.3867 39.4044 17.4362 39.1909 17.5352C38.9773 17.6289 38.8159 17.7643 38.7065 17.9414C38.5971 18.1133 38.5424 18.3138 38.5424 18.543C38.5424 18.8138 38.6206 19.043 38.7768 19.2305C38.9383 19.4128 39.1779 19.5898 39.4956 19.7617C39.8185 19.9336 40.2195 20.1341 40.6987 20.3633C41.282 20.6393 41.7794 20.9284 42.1909 21.2305C42.6076 21.5273 42.9279 21.8789 43.1518 22.2852C43.3758 22.6862 43.4878 23.1862 43.4878 23.7852ZM52.5503 26.957L51.7221 24.2383H47.5581L46.7299 26.957H44.1206L48.1518 15.4883H51.1128L55.1596 26.957H52.5503ZM51.144 22.207L50.3159 19.5508C50.2638 19.3737 50.1935 19.1471 50.1049 18.8711C50.0216 18.5898 49.9357 18.306 49.8471 18.0195C49.7638 17.7279 49.6961 17.4753 49.644 17.2617C49.5919 17.4753 49.519 17.7409 49.4253 18.0586C49.3367 18.3711 49.2508 18.668 49.1674 18.9492C49.0841 19.2305 49.0242 19.431 48.9878 19.5508L48.1674 22.207H51.144ZM65.5659 15.5352L61.6831 26.957H59.0424L55.1674 15.5352H57.6128L59.7612 22.332C59.7977 22.4466 59.8576 22.6628 59.9409 22.9805C60.0242 23.293 60.1076 23.6263 60.1909 23.9805C60.2794 24.3294 60.3393 24.6185 60.3706 24.8477C60.4018 24.6185 60.4565 24.3294 60.5346 23.9805C60.618 23.6315 60.6987 23.3008 60.7768 22.9883C60.8602 22.6706 60.9201 22.4518 60.9565 22.332L63.1206 15.5352H65.5659ZM73.5893 26.957H67.0112V15.5352H73.5893V17.5195H69.4331V20.0273H73.3003V22.0117H69.4331V24.957H73.5893V26.957Z" fill="white"/>
</g>
<defs>
<filter id="filter0_d_922_3273" x="0.389404" y="0.558594" width="110" height="48" filterUnits="userSpaceOnUse" color-interpolation-filters="sRGB">
<feFlood flood-opacity="0" result="BackgroundImageFix"/>
<feColorMatrix in="SourceAlpha" type="matrix" values="0 0 0 0 0 0 0 0 0 0 0 0 0 0 0 0 0 0 127 0" result="hardAlpha"/>
<feOffset dy="4"/>
<feGaussianBlur stdDeviation="2"/>
<feComposite in2="hardAlpha" operator="out"/>
<feColorMatrix type="matrix" values="0 0 0 0 0 0 0 0 0 0 0 0 0 0 0 0 0 0 0.25 0"/>
<feBlend mode="normal" in2="BackgroundImageFix" result="effect1_dropShadow_922_3273"/>
<feBlend mode="normal" in="SourceGraphic" in2="effect1_dropShadow_922_3273" result="shape"/>
</filter>
</defs>
</svg>
